<?xml version="1.0" standalone="no"?>
<!DOCTYPE svg PUBLIC "-//W3C//DTD SVG 20010904//EN"
 "http://www.w3.org/TR/2001/REC-SVG-20010904/DTD/svg10.dtd">
<svg version="1.0" xmlns="http://www.w3.org/2000/svg"
 width="1771.000000pt" height="1241.000000pt" viewBox="0 0 1771.000000 1241.000000"
 preserveAspectRatio="xMidYMid meet">

<g transform="translate(0.000000,1241.000000) scale(0.100000,-0.100000)"
fill="#000000" stroke="none">
<path d="M0 6205 l0 -6205 8855 0 8855 0 0 6205 0 6205 -8855 0 -8855 0 0
-6205z m8800 3331 c354 -48 655 -184 947 -430 56 -47 105 -86 107 -86 3 0 7
96 8 213 l3 212 513 3 512 2 0 -2045 0 -2045 -512 2 -513 3 -5 1240 -5 1240
-33 75 c-43 100 -139 248 -210 322 -74 78 -220 192 -296 230 -87 44 -221 94
-307 115 -115 28 -415 26 -524 -4 -282 -77 -475 -219 -641 -470 -30 -46 -57
-83 -59 -83 -3 0 -5 304 -5 675 l0 675 33 20 c73 46 361 124 512 139 129 13
362 12 475 -3z m2472 -5143 c74 -21 145 -76 186 -143 43 -73 52 -108 52 -212
l0 -88 -104 0 -103 0 -5 84 c-7 126 -45 166 -158 166 -96 0 -138 -34 -154
-123 -12 -67 20 -119 109 -174 297 -187 352 -236 395 -350 29 -77 25 -213 -8
-286 -59 -131 -184 -207 -342 -207 -228 0 -377 156 -368 387 l3 78 100 0 100
0 2 -35 c9 -123 15 -144 47 -176 55 -55 186 -55 241 0 30 30 42 104 26 156
-15 51 -73 100 -221 189 -213 128 -288 220 -298 367 -18 275 216 447 500 367z
m3033 -12 c58 -26 131 -95 160 -151 42 -83 47 -140 43 -530 -3 -347 -4 -368
-25 -418 -57 -140 -183 -222 -344 -222 -201 0 -344 120 -369 312 -12 94 -12
596 0 712 15 141 68 225 181 286 96 51 252 56 354 11z m-11991 9 c182 -27 292
-150 303 -340 6 -96 -12 -175 -53 -235 -30 -44 -30 -49 1 -89 56 -74 70 -122
70 -251 0 -114 -2 -123 -31 -186 -40 -83 -90 -133 -173 -173 l-66 -31 -232 -3
-233 -3 0 654 c0 359 3 657 7 660 10 11 330 8 407 -3z m1421 -100 l0 -105
-202 -3 -203 -2 0 -160 0 -160 185 0 185 0 0 -105 0 -105 -185 0 -185 0 0
-180 0 -180 205 0 205 0 0 -105 0 -105 -312 2 -313 3 -3 645 c-1 355 0 651 3
658 3 10 71 12 312 10 l308 -3 0 -105z m723 -122 c1 -126 6 -228 11 -228 5 0
66 89 136 198 70 108 138 212 152 230 l24 32 104 0 c57 0 107 -4 110 -10 3 -5
-65 -121 -151 -256 -86 -136 -159 -254 -161 -263 -2 -9 75 -184 172 -390 96
-206 175 -380 175 -388 0 -18 -233 -19 -247 0 -5 6 -62 132 -127 280 -65 147
-120 267 -122 267 -2 0 -19 -24 -39 -52 l-35 -53 0 -227 0 -228 -105 0 -105 0
0 653 c0 360 3 657 7 661 4 4 50 5 103 4 l95 -3 3 -227z m1637 122 l0 -105
-127 -3 -128 -3 0 -550 0 -550 -107 3 -108 3 -3 547 -2 547 -128 3 -127 3 -3
94 c-1 52 0 101 2 108 5 11 73 13 368 11 l363 -3 0 -105z m629 104 c14 -5 16
-60 16 -513 0 -462 2 -509 18 -541 23 -47 63 -65 142 -64 75 0 103 13 130 57
19 31 20 55 20 534 0 276 3 508 6 517 8 22 185 23 203 2 9 -11 11 -143 9 -528
-4 -569 -4 -567 -72 -659 -38 -52 -110 -103 -170 -122 -23 -6 -84 -12 -136
-12 -121 1 -193 27 -259 94 -59 59 -88 119 -101 207 -10 74 -14 991 -4 1018 5
13 23 16 94 16 49 0 95 -3 104 -6z m1463 -3 c186 -27 300 -150 311 -333 6
-101 -9 -170 -54 -243 l-34 -58 30 -45 c54 -82 60 -121 60 -389 l0 -243 -105
0 -105 0 -1 228 c-1 329 -6 337 -197 337 l-117 0 -3 -282 -2 -283 -105 0 -105
0 0 653 c0 360 3 657 7 660 10 10 348 8 420 -2z m1987 1 c3 -5 23 -114 46
-243 22 -129 71 -417 110 -641 38 -224 70 -412 70 -418 0 -7 -36 -10 -107 -8
l-107 3 -11 60 -10 60 -135 0 -134 0 -9 -40 c-4 -22 -10 -50 -13 -62 -4 -22
-9 -23 -109 -23 -78 0 -105 3 -105 13 0 6 27 167 59 357 101 585 132 762 146
847 7 45 16 87 20 93 8 12 281 14 289 2z m2024 0 c10 -7 12 -145 10 -658 l-3
-649 -105 0 -105 0 -3 649 c-2 513 0 651 10 658 7 4 51 8 98 8 47 0 91 -4 98
-8z m732 -547 l5 -550 203 -3 202 -2 0 -105 0 -105 -312 2 -313 3 -3 638 c-1
436 1 644 8 658 10 18 20 19 108 17 l97 -3 5 -550z m2166 547 c6 -4 18 -50 27
-102 9 -52 42 -241 72 -420 31 -179 59 -334 64 -345 10 -25 7 -44 76 370 65
386 83 483 91 496 3 5 48 9 100 9 76 0 96 -3 101 -16 3 -8 -18 -151 -47 -317
-28 -166 -76 -446 -106 -622 -30 -176 -56 -330 -59 -343 -5 -22 -7 -23 -152
-20 l-147 3 -8 35 c-7 33 -124 714 -187 1089 -17 96 -28 179 -25 183 6 10 185
10 200 0z"/>
<path d="M14050 4182 c-68 -34 -70 -44 -69 -442 0 -248 4 -365 12 -390 18 -51
66 -75 148 -74 76 0 109 16 136 67 16 29 18 66 18 392 0 329 -2 363 -18 397
-32 63 -149 89 -227 50z"/>
<path d="M2114 4167 c-2 -7 -3 -76 -2 -152 l3 -140 85 -3 c156 -6 204 28 204
147 1 126 -40 161 -192 161 -67 0 -94 -4 -98 -13z"/>
<path d="M2115 3638 c-3 -8 -4 -88 -3 -178 l3 -165 105 1 c165 1 203 33 204
174 1 84 -13 121 -57 154 -24 18 -46 22 -138 24 -86 3 -110 1 -114 -10z"/>
<path d="M7977 4173 c-4 -3 -7 -70 -7 -148 0 -116 3 -145 15 -155 19 -16 193
-7 232 12 50 25 68 62 68 142 0 126 -39 156 -203 156 -54 0 -102 -3 -105 -7z"/>
<path d="M10027 3954 c-11 -32 -87 -475 -87 -506 l0 -28 90 0 c89 0 90 0 90
24 0 19 -66 430 -83 516 -2 10 -5 8 -10 -6z"/>
</g>
</svg>
